<?xml version="1.0" encoding="UTF-8"?>
<svg xmlns="http://www.w3.org/2000/svg" viewBox="0 0 512 512">
  <path fill="#C9A227" d="M336 240h-64v-64h64v64zm-128 0H144v-64h64v64zm-128 0H16v-64h64v64zm256 0v-64h64v64h-64zM336 16h-64v64h64V16zm-128 0h-64v64h64V16zm-128 0H16v64h64V16zm256 0v64h64V16h-64zM336 128h-64v64h64v-64zm-128 0h-64v64h64v-64zm-128 0H16v64h64v-64zm256 0v64h64v-64h-64zM16 432h64v64H16v-64zm128 0h64v64h-64v-64zm128 0h64v64h-64v-64zm128 0h64v64h-64v-64zM16 368h64v-64H16v64zm128 0h64v-64h-64v64zm128 0h64v-64h-64v64zm128 0h64v-64h-64v64zM16 304h64v-64H16v64zm416 0h64v-64h-64v64zM16 112V48c0-8.8 7.2-16 16-16h448c8.8 0 16 7.2 16 16v352c0 8.8-7.2 16-16 16H32c-8.8 0-16-7.2-16-16v-64h64v-32H16v-64h64v-32H16v-64h64v-32H16z"/>
</svg>
