<?xml version="1.0" encoding="UTF-8"?>
<svg width="24px" height="24px" viewBox="0 0 24 24" version="1.1" xmlns="http://www.w3.org/2000/svg" xmlns:xlink="http://www.w3.org/1999/xlink">
    <title>Laundry Facilities</title>
    <g stroke="none" stroke-width="1" fill="none" fill-rule="evenodd">
        <path d="M18,2.01 L6,2 C4.9,2 4,2.89 4,4 L4,20 C4,21.11 4.9,22 6,22 L18,22 C19.11,22 20,21.11 20,20 L20,4 C20,2.89 19.11,2.01 18,2.01 Z M18,20 L6,20 L6,4 L18,4 L18,20 Z M9.5,6 C10.33,6 11,6.67 11,7.5 C11,8.33 10.33,9 9.5,9 C8.67,9 8,8.33 8,7.5 C8,6.67 8.67,6 9.5,6 Z M14.5,6 C15.33,6 16,6.67 16,7.5 C16,8.33 15.33,9 14.5,9 C13.67,9 13,8.33 13,7.5 C13,6.67 13.67,6 14.5,6 Z M12,14 C14.21,14 16,15.79 16,18 L8,18 C8,15.79 9.79,14 12,14 Z" fill="#2A9D8F" fill-rule="nonzero"></path>
    </g>
</svg>
