<?xml version="1.0" encoding="UTF-8"?>
<svg xmlns="http://www.w3.org/2000/svg" viewBox="0 0 512 512">
  <path fill="#1A365D" d="M320 64c-8.8 0-16 7.2-16 16v64c0 8.8 7.2 16 16 16h64c8.8 0 16-7.2 16-16V80c0-8.8-7.2-16-16-16h-64zm-128 0c-8.8 0-16 7.2-16 16v64c0 8.8 7.2 16 16 16h64c8.8 0 16-7.2 16-16V80c0-8.8-7.2-16-16-16h-64zM144 384c-8.8 0-16 7.2-16 16s7.2 16 16 16h224c8.8 0 16-7.2 16-16s-7.2-16-16-16H144zm-16-80c0 53 43 96 96 96s96-43 96-96-43-96-96-96-96 43-96 96zm96-64c35.3 0 64 28.7 64 64s-28.7 64-64 64-64-28.7-64-64 28.7-64 64-64zM512 64v384c0 35.3-28.7 64-64 64H64c-35.3 0-64-28.7-64-64V64C0 28.7 28.7 0 64 0h384c35.3 0 64 28.7 64 64zM64 32c-17.7 0-32 14.3-32 32v384c0 17.7 14.3 32 32 32h384c17.7 0 32-14.3 32-32V64c0-17.7-14.3-32-32-32H64z"/>
</svg>
