<?xml version="1.0" encoding="UTF-8"?>
<svg xmlns="http://www.w3.org/2000/svg" viewBox="0 0 512 512">
  <path fill="#34E0A1" d="M256 128c-35.35 0-64 28.65-64 64s28.65 64 64 64 64-28.65 64-64-28.65-64-64-64zm128 0c-35.35 0-64 28.65-64 64s28.65 64 64 64 64-28.65 64-64-28.65-64-64-64zM256 160c17.67 0 32 14.33 32 32s-14.33 32-32 32-32-14.33-32-32 14.33-32 32-32zm128 0c17.67 0 32 14.33 32 32s-14.33 32-32 32-32-14.33-32-32 14.33-32 32-32zM128 128c-35.35 0-64 28.65-64 64s28.65 64 64 64 64-28.65 64-64-28.65-64-64-64zm0 32c17.67 0 32 14.33 32 32s-14.33 32-32 32-32-14.33-32-32 14.33-32 32-32z"/>
  <path fill="#34E0A1" d="M471.05 154.03C449.86 136.65 417.54 128 384 128c-31.88 0-59.18 7.47-80.84 23.03C279.2 128.8 247.56 112.4 208.1 112.18 208.07 112.18 208.03 112.18 208 112.18 208 112.12 208 112.06 208 112c0-44.18-35.82-80-80-80-8.84 0-16 7.16-16 16s7.16 16 16 16c26.51 0 48 21.49 48 48 0 .98-.1 1.94-.14 2.91C121.82 130.32 80 186.62 80 256c0 97.05 78.95 176 176 176s176-78.95 176-176c0-69.38-41.82-125.68-96.86-151.09.04-.97.14-1.93.14-2.91 0-26.51-21.49-48-48-48-8.84 0-16 7.16-16 16s7.16 16 16 16c8.84 0 16 7.16 16 16 0 .94-.06 1.86-.14 2.77 15.26 4.48 29.13 12.07 40.94 22.23C364.82 135.47 392.12 128 424 128c33.54 0 65.86 8.65 87.05 26.03C521.27 162.7 528 172.57 528 184c0 11.43-6.73 21.3-16.95 29.97C489.86 231.35 457.54 240 424 240c-33.54 0-65.86-8.65-87.05-26.03C326.73 205.3 320 195.43 320 184c0-11.43 6.73-21.3 16.95-29.97C358.14 136.65 390.46 128 424 128c8.84 0 16-7.16 16-16s-7.16-16-16-16z"/>
</svg>
