<?xml version="1.0" encoding="UTF-8"?>
<svg width="24px" height="24px" viewBox="0 0 24 24" version="1.1" xmlns="http://www.w3.org/2000/svg" xmlns:xlink="http://www.w3.org/1999/xlink">
    <title>Water System</title>
    <g stroke="none" stroke-width="1" fill="none" fill-rule="evenodd">
        <path d="M12,2 C8.96,2 4,9.4 4,14.5 C4,18.58 7.42,22 11.5,22 L12.5,22 C16.58,22 20,18.58 20,14.5 C20,9.4 15.04,2 12,2 Z M12,20 C9.24,20 7,17.76 7,15 C7,13.95 7.41,12.84 8.5,12 C8.18,12.83 8,13.71 8,14.5 C8,16.99 10.01,19 12.5,19 C13.29,19 14.17,18.82 15,18.5 C14.16,19.59 13.05,20 12,20 Z" fill="#3498db" fill-rule="nonzero"></path>
    </g>
</svg>
